<svg width="16" height="16" viewBox="0 0 16 16" fill="none" xmlns="http://www.w3.org/2000/svg">
<path d="M10 5C10 5.53043 9.78929 6.03914 9.41421 6.41421C9.03914 6.78929 8.53043 7 8 7C7.46957 7 6.96086 6.78929 6.58579 6.41421C6.21071 6.03914 6 5.53043 6 5C6 4.46957 6.21071 3.96086 6.58579 3.58579C6.96086 3.21071 7.46957 3 8 3C8.53043 3 9.03914 3.21071 9.41421 3.58579C9.78929 3.96086 10 4.46957 10 5ZM5 12C4.86739 12 4.74021 12.0527 4.64645 12.1464C4.55268 12.2402 4.5 12.3674 4.5 12.5C4.5 12.6326 4.55268 12.7598 4.64645 12.8536C4.74021 12.9473 4.86739 13 5 13H11C11.1326 13 11.2598 12.9473 11.3536 12.8536C11.4473 12.7598 11.5 12.6326 11.5 12.5C11.5 12.3674 11.4473 12.2402 11.3536 12.1464C11.2598 12.0527 11.1326 12 11 12H5ZM2.5 2.75C2.5 2.28587 2.68437 1.84075 3.01256 1.51256C3.34075 1.18437 3.78587 1 4.25 1H11.75C12.2141 1 12.6592 1.18437 12.9874 1.51256C13.3156 1.84075 13.5 2.28587 13.5 2.75V13.25C13.5 13.7141 13.3156 14.1592 12.9874 14.4874C12.6592 14.8156 12.2141 15 11.75 15H4.25C3.78587 15 3.34075 14.8156 3.01256 14.4874C2.68437 14.1592 2.5 13.7141 2.5 13.25V2.75ZM4.25 2C4.05109 2 3.86032 2.07902 3.71967 2.21967C3.57902 2.36032 3.5 2.55109 3.5 2.75V10H5V8.5C5 8.23478 5.10536 7.98043 5.29289 7.79289C5.48043 7.60536 5.73478 7.5 6 7.5H10C10.2652 7.5 10.5196 7.60536 10.7071 7.79289C10.8946 7.98043 11 8.23478 11 8.5V10H12.5V2.75C12.5 2.55109 12.421 2.36032 12.2803 2.21967C12.1397 2.07902 11.9489 2 11.75 2H4.25ZM3.5 13.25C3.5 13.4489 3.57902 13.6397 3.71967 13.7803C3.86032 13.921 4.05109 14 4.25 14H11.75C11.9489 14 12.1397 13.921 12.2803 13.7803C12.421 13.6397 12.5 13.4489 12.5 13.25V11H3.5V13.25Z" fill="white"/>
</svg>
