<svg width="24" height="24" viewBox="0 0 24 24" fill="none" xmlns="http://www.w3.org/2000/svg">
<path d="M12.2875 6.55H14.857M12.287 10.295H14.857M12.287 9.047H14.857M12.287 7.7985H14.857M9.475 6.203V6.5625C9.475 6.872 9.724 7.1345 10.034 7.1345H10.5125C10.5857 7.1343 10.6582 7.14853 10.726 7.17636C10.7937 7.2042 10.8552 7.2451 10.9072 7.29673C10.9591 7.34836 11.0003 7.4097 11.0285 7.47727C11.0567 7.54483 11.0713 7.61729 11.0715 7.6905V8.515M8.1825 6.2585V6.5625C8.1825 6.872 7.9325 7.1345 7.6235 7.1345H7.1445C7.07129 7.1343 6.99875 7.14853 6.93104 7.17636C6.86332 7.2042 6.80176 7.2451 6.74985 7.29673C6.69794 7.34836 6.65671 7.4097 6.62851 7.47727C6.60031 7.54483 6.5857 7.61729 6.5855 7.6905V8.515M17.362 9.1865H19.449C20.378 9.1865 21.3775 9.969 21.126 10.8625L18.6975 19.4925M16.038 3.868H17.362V11.765M5.405 10.0175V2.75H16.0385V11.765M12.287 3.923H14.857V5.255H12.287V3.923ZM9.829 5.182C9.829 5.9325 9.3705 6.541 8.805 6.541C8.24 6.541 7.7815 5.932 7.7815 5.182C7.7815 4.432 8.2395 3.8235 8.805 3.823C9.37 3.823 9.829 4.4315 9.829 5.182ZM9.4 13.0815V15.0415H7.439V17.729H9.4V19.689H12.0875V17.729H14.0475V15.0415H12.0875V13.0815H9.4ZM7.922 10.017H3.9525C3.80608 10.0166 3.66101 10.0451 3.52558 10.1007C3.39015 10.1564 3.26701 10.2382 3.1632 10.3415C3.05938 10.4447 2.97692 10.5674 2.92052 10.7025C2.86412 10.8377 2.83489 10.9826 2.8345 11.129V20.132C2.83411 20.2784 2.86256 20.4235 2.91823 20.5589C2.9739 20.6944 3.05569 20.8175 3.15895 20.9213C3.26221 21.0251 3.38491 21.1076 3.52004 21.164C3.65516 21.2204 3.80008 21.2496 3.9465 21.25H17.579C17.7254 21.2504 17.8705 21.2219 18.0059 21.1663C18.1413 21.1106 18.2645 21.0288 18.3683 20.9255C18.4721 20.8223 18.5546 20.6996 18.611 20.5645C18.6674 20.4293 18.6966 20.2844 18.697 20.138V12.8825C18.6977 12.5869 18.5809 12.3031 18.3724 12.0935C18.1638 11.884 17.8806 11.7658 17.585 11.765H9.4565L7.922 10.017Z" stroke="white" stroke-width="0.5" stroke-linecap="round" stroke-linejoin="round"/>
</svg>
